<svg width="35" height="35" viewBox="0 0 35 35" fill="none" xmlns="http://www.w3.org/2000/svg">
<path fill-rule="evenodd" clip-rule="evenodd" d="M10.8865 1.55475C12.5971 1.476 13.1425 1.4585 17.5 1.4585C21.8575 1.4585 22.403 1.47745 24.1121 1.55475C25.8213 1.63204 26.988 1.90475 28.0088 2.29995C29.0777 2.70391 30.0475 3.33537 30.8496 4.15204C31.6663 4.95266 32.2963 5.921 32.6988 6.99141C33.0955 8.01225 33.3667 9.17891 33.4455 10.8852C33.5242 12.5987 33.5417 13.1441 33.5417 17.5002C33.5417 21.8577 33.5227 22.4031 33.4455 24.1137C33.3682 25.82 33.0955 26.9866 32.6988 28.0075C32.2963 29.078 31.6652 30.048 30.8496 30.8497C30.0475 31.6664 29.0777 32.2964 28.0088 32.6989C26.988 33.0956 25.8213 33.3668 24.115 33.4456C22.403 33.5243 21.8575 33.5418 17.5 33.5418C13.1425 33.5418 12.5971 33.5229 10.8865 33.4456C9.18025 33.3683 8.01358 33.0956 6.99275 32.6989C5.92222 32.2964 4.95228 31.6653 4.15046 30.8497C3.33434 30.0486 2.70279 29.0792 2.29983 28.0089C1.90462 26.9881 1.63337 25.8214 1.55462 24.1152C1.47587 22.4016 1.45837 21.8562 1.45837 17.5002C1.45837 13.1427 1.47733 12.5972 1.55462 10.8881C1.63192 9.17891 1.90462 8.01225 2.29983 6.99141C2.70339 5.92111 3.33542 4.95166 4.15192 4.15058C4.9526 3.33464 5.92156 2.7031 6.99129 2.29995C8.01212 1.90475 9.17879 1.6335 10.885 1.55475H10.8865ZM23.9823 4.44225C22.2907 4.36495 21.7832 4.34891 17.5 4.34891C13.2169 4.34891 12.7094 4.36495 11.0177 4.44225C9.45296 4.5137 8.60421 4.77475 8.03837 4.99495C7.29025 5.28662 6.75504 5.63225 6.19358 6.1937C5.66136 6.71149 5.25176 7.34182 4.99483 8.0385C4.77462 8.60433 4.51358 9.45308 4.44212 11.0179C4.36483 12.7095 4.34879 13.217 4.34879 17.5002C4.34879 21.7833 4.36483 22.2908 4.44212 23.9825C4.51358 25.5472 4.77462 26.396 4.99483 26.9618C5.2515 27.6575 5.66129 28.2889 6.19358 28.8066C6.71129 29.3389 7.34275 29.7487 8.03837 30.0054C8.60421 30.2256 9.45296 30.4866 11.0177 30.5581C12.7094 30.6354 13.2155 30.6514 17.5 30.6514C21.7846 30.6514 22.2907 30.6354 23.9823 30.5581C25.5471 30.4866 26.3959 30.2256 26.9617 30.0054C27.7098 29.7137 28.245 29.3681 28.8065 28.8066C29.3388 28.2889 29.7486 27.6575 30.0052 26.9618C30.2255 26.396 30.4865 25.5472 30.558 23.9825C30.6352 22.2908 30.6513 21.7833 30.6513 17.5002C30.6513 13.217 30.6352 12.7095 30.558 11.0179C30.4865 9.45308 30.2255 8.60433 30.0052 8.0385C29.7136 7.29037 29.368 6.75516 28.8065 6.1937C28.2887 5.66152 27.6584 5.25193 26.9617 4.99495C26.3959 4.77475 25.5471 4.5137 23.9823 4.44225ZM15.4511 22.4454C16.5954 22.9217 17.8696 22.986 19.056 22.6273C20.2424 22.2685 21.2675 21.509 21.9561 20.4784C22.6448 19.4479 22.9543 18.2102 22.8318 16.9768C22.7093 15.7434 22.1623 14.5907 21.2844 13.7158C20.7248 13.1565 20.0481 12.7282 19.303 12.4618C18.558 12.1954 17.7632 12.0976 16.9758 12.1752C16.1884 12.2529 15.428 12.5042 14.7493 12.911C14.0707 13.3178 13.4907 13.87 13.0511 14.5279C12.6115 15.1857 12.3232 15.9329 12.207 16.7155C12.0909 17.4982 12.1496 18.2968 12.3792 19.054C12.6087 19.8112 13.0032 20.5081 13.5344 21.0945C14.0656 21.681 14.7202 22.1423 15.4511 22.4454ZM11.6696 11.6697C12.4353 10.9041 13.3443 10.2967 14.3446 9.88236C15.345 9.46798 16.4172 9.25471 17.5 9.25471C18.5828 9.25471 19.6551 9.46798 20.6554 9.88236C21.6558 10.2967 22.5648 10.9041 23.3305 11.6697C24.0961 12.4354 24.7035 13.3444 25.1178 14.3448C25.5322 15.3451 25.7455 16.4174 25.7455 17.5002C25.7455 18.583 25.5322 19.6552 25.1178 20.6556C24.7035 21.6559 24.0961 22.5649 23.3305 23.3306C21.7841 24.8769 19.6869 25.7456 17.5 25.7456C15.3132 25.7456 13.2159 24.8769 11.6696 23.3306C10.1233 21.7843 9.25459 19.687 9.25459 17.5002C9.25459 15.3133 10.1233 13.2161 11.6696 11.6697ZM27.5742 10.4827C27.7639 10.3037 27.9158 10.0884 28.0209 9.84971C28.126 9.61097 28.1821 9.35358 28.1859 9.09277C28.1897 8.83196 28.1411 8.57304 28.043 8.33134C27.945 8.08964 27.7994 7.87007 27.615 7.68564C27.4305 7.5012 27.211 7.35564 26.9693 7.25758C26.7276 7.15953 26.4687 7.11096 26.2078 7.11476C25.947 7.11856 25.6896 7.17466 25.4509 7.27972C25.2122 7.38478 24.9969 7.53668 24.818 7.72641C24.4699 8.09541 24.2793 8.58555 24.2867 9.09277C24.2941 9.59999 24.4989 10.0844 24.8576 10.4431C25.2163 10.8018 25.7006 11.0065 26.2078 11.0139C26.7151 11.0213 27.2052 10.8308 27.5742 10.4827Z" fill="black"/>
</svg>
