<svg width="250" height="92" viewBox="0 0 250 92" fill="none" xmlns="http://www.w3.org/2000/svg">
<ellipse cx="148.365" cy="60.7479" rx="101.636" ry="30.3738" fill="url(#paint0_linear)"/>
<ellipse cx="101.636" cy="30.3738" rx="101.636" ry="30.3738" fill="url(#paint1_linear)"/>
<path d="M61.3785 19.4485C56.2149 19.4485 52.243 23.3503 52.243 28.3971C52.243 33.3971 56.2617 37.3223 61.3318 37.3223C66.3551 37.3223 70.2336 33.4204 70.2336 28.3737C70.2336 23.4438 66.285 19.4485 61.3785 19.4485ZM61.1682 22.5326C64.5327 22.5326 67.0093 25.0326 67.0093 28.4204C67.0093 31.7615 64.5794 34.2382 61.3084 34.2382C58.0374 34.2382 55.4673 31.6681 55.4673 28.3737C55.4673 25.126 58.014 22.5326 61.1682 22.5326ZM75.9298 29.2849H76.9579C77.9859 29.2849 78.7803 29.3784 79.3644 29.5419C80.3691 29.7989 80.9999 30.5933 80.9999 31.5746C80.9999 32.6728 80.3691 33.5139 79.341 33.7709C78.7803 33.8877 78.2429 33.9578 77.098 33.9578H75.9298V29.2849ZM75.9298 22.8129H83.1261V19.7522H72.7289V37.0186H77.0513C79.5513 37.0186 80.8364 36.8083 81.9111 36.1307C83.3831 35.2195 84.2242 33.6073 84.2242 31.6447C84.2242 29.5886 83.2663 27.7662 81.6775 26.9251C80.6728 26.3877 79.5046 26.2242 77.0046 26.2242H75.9298V22.8129ZM86.7156 37.0186H89.9166V29.7756H96.0848V37.0186H99.2857V19.7522H96.0848V26.7148H89.9166V19.7522H86.7156V37.0186ZM110.914 19.4485C105.75 19.4485 101.778 23.3503 101.778 28.3971C101.778 33.3971 105.797 37.3223 110.867 37.3223C115.891 37.3223 119.769 33.4204 119.769 28.3737C119.769 23.4438 115.82 19.4485 110.914 19.4485ZM110.704 22.5326C114.068 22.5326 116.545 25.0326 116.545 28.4204C116.545 31.7615 114.115 34.2382 110.844 34.2382C107.573 34.2382 105.003 31.6681 105.003 28.3737C105.003 25.126 107.549 22.5326 110.704 22.5326ZM122.264 37.0186H126.867C128.713 37.0186 130.068 36.7382 131.119 36.1307C132.615 35.2662 133.479 33.7008 133.479 31.8784C133.479 30.8036 133.199 29.7989 132.685 29.098C132.194 28.4204 131.68 28.07 130.535 27.6027C131.914 26.8784 132.451 25.9905 132.451 24.355C132.451 22.7896 131.774 21.4578 130.582 20.6634C129.531 19.9625 128.456 19.7522 125.816 19.7522H122.264V37.0186ZM125.465 33.9578V29.5419H126.984C129.204 29.5419 130.255 30.2662 130.255 31.7849C130.255 33.3036 129.297 33.9578 127.054 33.9578H125.465ZM125.465 26.4111V22.883H126.774C128.433 22.883 129.25 23.4438 129.25 24.6354C129.25 25.8737 128.433 26.4111 126.493 26.4111H125.465ZM146.655 19.7522L139.155 31.7148V19.7522H135.977V37.0186H139.225L146.725 25.0559V37.0186H149.903V19.7522H146.655Z" fill="white"/>
<path d="M100.117 72.0649L107.36 54.7986H103.902L100.421 63.5836L97.0094 54.7986H93.5515L98.8552 67.5322L97.0795 72.0649H100.117ZM108.613 54.7986V60.6163C108.613 64.7051 110.879 65.8266 113.8 65.8266C114.898 65.8266 116.043 65.6631 117.234 65.4528V72.0649H120.435V54.7986H117.234V62.5089C116.37 62.6958 115.576 62.7659 114.361 62.7659C112.491 62.7659 111.814 61.9248 111.814 59.7986V54.7986H108.613ZM122.257 72.0649H125.785L127.701 67.6023H133.846L135.691 72.0649H139.219L131.976 54.7986H129.453L122.257 72.0649ZM128.869 64.5416L130.715 59.3079L132.56 64.5416H128.869ZM152.269 67.2519C150.844 68.7238 149.652 69.2846 147.993 69.2846C144.792 69.2846 142.199 66.621 142.199 63.3967C142.199 61.9948 142.736 60.4995 143.624 59.4715C144.676 58.2332 146.147 57.579 147.923 57.579C149.933 57.579 151.288 58.2332 152.456 59.7519H156.031C155.376 58.3033 154.816 57.5322 153.718 56.5976C152.105 55.2425 150.026 54.4948 147.853 54.4948C142.97 54.4948 138.975 58.4902 138.975 63.3734C138.975 68.3734 143.017 72.3687 148.063 72.3687C151.615 72.3687 154.676 70.4061 156.031 67.2519H152.269ZM160.231 72.0649H163.432V57.8593H166.632V54.7986H157.03V57.8593H160.231V72.0649ZM176.449 54.4948C171.285 54.4948 167.313 58.3967 167.313 63.4434C167.313 68.4434 171.332 72.3687 176.402 72.3687C181.425 72.3687 185.304 68.4668 185.304 63.4201C185.304 58.4902 181.355 54.4948 176.449 54.4948ZM176.238 57.579C179.603 57.579 182.08 60.079 182.08 63.4668C182.08 66.8079 179.65 69.2846 176.379 69.2846C173.108 69.2846 170.537 66.7145 170.537 63.4201C170.537 60.1724 173.084 57.579 176.238 57.579ZM187.799 72.0649H191V64.4715L196.35 72.0649H200.206L193.71 63.2799L200.206 54.7986H196.35L191 62.2519V54.7986H187.799V72.0649Z" fill="white"/>
<defs>
<linearGradient id="paint0_linear" x1="46.729" y1="59.8274" x2="250" y2="59.8274" gradientUnits="userSpaceOnUse">
<stop stop-color="#EB8A45"/>
<stop offset="0.810899" stop-color="#EB8A45"/>
</linearGradient>
<linearGradient id="paint1_linear" x1="0" y1="29.4534" x2="203.271" y2="29.4534" gradientUnits="userSpaceOnUse">
<stop stop-color="#B4C100"/>
<stop offset="0.810899" stop-color="#B4C100" stop-opacity="0.7"/>
</linearGradient>
</defs>
</svg>
