<svg width="26" height="26" viewBox="0 0 26 26" fill="none" xmlns="http://www.w3.org/2000/svg">
<path d="M23.2916 9.19533V18.2813C23.2916 19.8521 22.0187 21.125 20.4479 21.125H5.55206C4.79785 21.125 4.07453 20.8254 3.54123 20.2921C3.00792 19.7588 2.70831 19.0355 2.70831 18.2813V9.19533L12.6739 14.677C12.877 14.7886 13.1235 14.7886 13.3261 14.677L23.2916 9.19479V9.19533ZM20.4479 4.875C21.1902 4.87507 21.9031 5.16542 22.4343 5.68402C22.9654 6.20262 23.2727 6.90837 23.2906 7.6505L13 13.3109L2.7094 7.64996L2.71048 7.60121C2.74081 6.86793 3.05347 6.17477 3.58306 5.66669C4.11264 5.1586 4.81816 4.87493 5.55206 4.875H20.4479Z" fill="black"/>
</svg>
