<svg width="21" height="21" viewBox="0 0 21 21" fill="none" xmlns="http://www.w3.org/2000/svg">
<path d="M8.87833 12.0402C10.096 13.2755 11.5694 14.2292 13.195 14.8344L15.3942 13.0844C15.4594 13.0395 15.5367 13.0154 15.6158 13.0154C15.695 13.0154 15.7723 13.0395 15.8375 13.0844L19.9208 15.7152C20.0759 15.8084 20.2071 15.9364 20.3041 16.089C20.4012 16.2416 20.4615 16.4147 20.4801 16.5947C20.4988 16.7746 20.4754 16.9564 20.4117 17.1257C20.3481 17.295 20.2459 17.4472 20.1133 17.5702L18.2 19.4602C17.926 19.731 17.5892 19.9296 17.2197 20.0386C16.8502 20.1475 16.4595 20.1632 16.0825 20.0844C12.3213 19.3076 8.85449 17.4883 6.07833 14.8344C3.36378 12.1541 1.48532 8.74371 0.67083 5.01688C0.590369 4.64567 0.607162 4.25997 0.719583 3.89716C0.832004 3.53434 1.03624 3.20673 1.3125 2.94605L3.29583 1.03271C3.41856 0.90659 3.56824 0.809866 3.73365 0.749784C3.89906 0.689703 4.07592 0.66782 4.25099 0.685776C4.42605 0.703731 4.59479 0.76106 4.74456 0.853468C4.89433 0.945875 5.02126 1.07097 5.11583 1.21938L7.83416 5.25021C7.88105 5.31351 7.90636 5.39019 7.90636 5.46896C7.90636 5.54773 7.88105 5.62442 7.83416 5.68771L6.04333 7.84021C6.66492 9.43326 7.63334 10.868 8.87833 12.0402Z" fill="black"/>
</svg>
