<svg width="32" height="32" viewBox="0 0 32 32" fill="none" xmlns="http://www.w3.org/2000/svg">
<g clip-path="url(#clip0)">
<path fill-rule="evenodd" clip-rule="evenodd" d="M31.2667 7.9305C31.488 7.2025 31.2667 6.6665 30.2067 6.6665H26.7067C25.816 6.6665 25.4053 7.12917 25.1827 7.63984C25.1827 7.63984 23.4027 11.9012 20.8813 14.6692C20.0653 15.4718 19.6947 15.7265 19.2493 15.7265C19.0267 15.7265 18.692 15.4718 18.692 14.7425V7.9305C18.692 7.05584 18.4467 6.6665 17.7053 6.6665H12.2013C11.6453 6.6665 11.3107 7.07184 11.3107 7.45717C11.3107 8.28517 12.572 8.47717 12.7013 10.8078V15.8718C12.7013 16.9825 12.4973 17.1838 12.052 17.1838C10.8653 17.1838 7.97867 12.9025 6.26533 8.00384C5.93333 7.0505 5.59733 6.6665 4.70267 6.6665H1.2C0.2 6.6665 0 7.12917 0 7.63984C0 8.54917 1.18667 13.0665 5.52667 19.0412C8.42 23.1212 12.4933 25.3332 16.204 25.3332C18.4293 25.3332 18.704 24.8425 18.704 23.9958V20.9118C18.704 19.9292 18.9147 19.7332 19.62 19.7332C20.14 19.7332 21.0293 19.9892 23.1067 21.9558C25.48 24.2878 25.8707 25.3332 27.2067 25.3332H30.7067C31.7067 25.3332 32.208 24.8425 31.92 23.8718C31.6027 22.9065 30.4693 21.5052 28.9667 19.8425C28.1507 18.8958 26.9267 17.8758 26.5547 17.3652C26.036 16.7105 26.184 16.4185 26.5547 15.8358C26.5547 15.8358 30.8213 9.9345 31.2653 7.9305H31.2667Z" fill="black"/>
</g>
<defs>
<clipPath id="clip0">
<rect width="32" height="32" fill="white"/>
</clipPath>
</defs>
</svg>
