<svg width="35" height="35" viewBox="0 0 35 35" fill="none" xmlns="http://www.w3.org/2000/svg">
<g clip-path="url(#clip0)">
<path d="M17.6116 4.37305H17.8063C19.6044 4.37961 28.7153 4.44523 31.1719 5.10586C31.9145 5.30748 32.5912 5.70047 33.1344 6.24556C33.6776 6.79066 34.0682 7.46876 34.2672 8.21211C34.4881 9.04336 34.6434 10.1437 34.7484 11.279L34.7703 11.5065L34.8184 12.0752L34.8359 12.3027C34.9781 14.3021 34.9956 16.1746 34.9978 16.5837V16.7477C34.9956 17.1721 34.9759 19.1715 34.8184 21.254L34.8009 21.4837L34.7812 21.7112C34.6719 22.9624 34.51 24.2049 34.2672 25.1193C34.0688 25.8629 33.6784 26.5414 33.1351 27.0866C32.5919 27.6317 31.9148 28.0245 31.1719 28.2255C28.6344 28.908 18.9897 28.9562 17.6531 28.9584H17.3425C16.6666 28.9584 13.8709 28.9452 10.9397 28.8446L10.5678 28.8315L10.3775 28.8227L10.0034 28.8074L9.62937 28.7921C7.20125 28.6849 4.88906 28.5121 3.82375 28.2234C3.08107 28.0225 2.4042 27.6301 1.86096 27.0853C1.31771 26.5405 0.927165 25.8625 0.728437 25.1193C0.485625 24.2071 0.32375 22.9624 0.214375 21.7112L0.196875 21.4815L0.179375 21.254C0.0714166 19.7717 0.0115935 18.2864 0 16.8002L0 16.5312C0.004375 16.0609 0.021875 14.4355 0.14 12.6418L0.155313 12.4165L0.161875 12.3027L0.179375 12.0752L0.2275 11.5065L0.249375 11.279C0.354375 10.1437 0.509687 9.04117 0.730625 8.21211C0.929017 7.46846 1.31942 6.79004 1.86268 6.24485C2.40595 5.69966 3.083 5.30687 3.82594 5.10586C4.89125 4.82148 7.20344 4.64648 9.63156 4.53711L10.0034 4.5218L10.3797 4.50867L10.5678 4.50211L10.9419 4.4868C13.0237 4.4198 15.1064 4.38261 17.1894 4.37523H17.6116V4.37305ZM14 11.3949V21.9343L23.0934 16.6668L14 11.3949Z" fill="black"/>
</g>
<defs>
<clipPath id="clip0">
<rect width="35" height="35" fill="white"/>
</clipPath>
</defs>
</svg>
